<svg xmlns="http://www.w3.org/2000/svg" viewBox="0 0 28.35 29.34" width="23.21" height="23.21">
  <path d="M10.21,29.34H3.09c-.37,0-1-.59-1-.96V10.94c-.28.18-.54.45-.89.5-.78.11-1.34-.57-1.17-1.32.07-.29.28-.35.43-.57L13.67.14c.21-.17.55-.19.78-.06,4.58,3.11,9.06,6.36,13.58,9.56.81.91-.1,2.23-1.24,1.67-.2-.1-.35-.28-.55-.37h.01s0,17.36,0,17.36c0,.34-.3.74-.6.89-.05.03-.4.15-.44.15h-15Z" fill="#d83c3d"/>
  <path d="M25.78,17.44c0,6.41-5.2,11.6-11.6,11.6S2.56,23.84,2.56,17.44,7.76,5.83,14.17,5.83s11.6,5.2,11.6,11.6ZM24.55,17.47c0-5.73-4.64-10.37-10.37-10.37S3.8,11.74,3.8,17.47s4.64,10.37,10.37,10.37,10.37-4.64,10.37-10.37Z" fill="#f8f8f8"/>
  <path d="M24.55,17.47c0,5.73-4.64,10.37-10.37,10.37S3.8,23.2,3.8,17.47,8.45,7.1,14.18,7.1s10.37,4.64,10.37,10.37ZM13.01,14.96c-1.05.64-1.34,1.87-1.17,3.03.04.24.19.46.2.77.05,1.46-1.74,1.6-2.17.37-.49-1.38.95-2.79,1.45-3.95.68-1.57.61-3.4-1.08-4.23.78,4.14-4.57,4.73-4.16,8.87.41,4.24,6.39,5.48,8.35,1.66,1.43-2.79-1.15-3.34-1.4-5.66-.03-.28.02-.58,0-.86Z" fill="#d83c3d"/>
  <path d="M19.97,15.29v-2.9c0-.06-.15-.23-.22-.27-.29-.17-2.48-.21-2.48.19v3.07h-2.42c-.28,0-.23,1.13-.19,1.33.02.11.92,1.37,1.01,1.37h1.47s.12.11.12.12v2.95s.09.18.14.21c.18.11,2.11.13,2.32.04.04-.02.25-.23.25-.24v-2.99h2.66s.18-.1.21-.14c.12-.19.12-2.3.02-2.55-.03-.07-.18-.18-.23-.18h-2.66Z" fill="#d83c3d"/>
  <path d="M13.01,14.96c.02.28-.03.58,0,.86.26,2.32,2.84,2.88,1.4,5.66-1.96,3.81-7.94,2.57-8.35-1.66-.4-4.14,4.95-4.73,4.16-8.87,1.68.83,1.75,2.66,1.08,4.23-.5,1.16-1.93,2.58-1.45,3.95.43,1.23,2.23,1.09,2.17-.37-.01-.31-.16-.53-.2-.77-.17-1.16.13-2.4,1.17-3.03Z" fill="#f8f8f8"/>
  <path d="M19.97,15.29h2.66c.06,0,.2.11.23.18.1.24.1,2.35-.02,2.55-.03.04-.18.14-.21.14h-2.66v2.99s-.2.22-.25.24c-.2.09-2.14.08-2.32-.04-.04-.03-.14-.18-.14-.21v-2.95s-.11-.12-.12-.12h-1.47c-.09,0-.98-1.26-1.01-1.37-.05-.2-.09-1.33.19-1.33h2.42v-3.07c0-.4,2.18-.36,2.48-.19.07.04.22.21.22.27v2.9Z" fill="#f8f8f8"/>
</svg>